<svg version="1.1" id="Layer_1" xmlns="http://www.w3.org/2000/svg" x="0" y="0" viewBox="0 0 250 249.5" style="enable-background:new 0 0 250 249.5" xml:space="preserve">
  <style>
    .st5{fill:#fff}
  </style>
  <linearGradient id="SVGID_1_" gradientUnits="userSpaceOnUse" x1="-15.337" y1="-15.347" x2="250.22" y2="250.211">
    <stop offset="0" style="stop-color:#e8f2f9"/>
    <stop offset=".1" style="stop-color:#e2ebf1"/>
    <stop offset=".279" style="stop-color:#d1d8dd"/>
    <stop offset=".514" style="stop-color:#b2b6b9"/>
    <stop offset=".795" style="stop-color:#808181"/>
    <stop offset="1" style="stop-color:#504f4e"/>
  </linearGradient>
  <path d="M125 0C56 0 0 56 0 125s56 125 125 125 125-56 125-125S194 0 125 0zm0 243.7C59.4 243.7 6.3 190.6 6.3 125S59.4 6.2 125 6.2 243.8 59.4 243.8 125 190.6 243.7 125 243.7z" style="fill:url(#SVGID_1_)"/>
  <path d="M244.7 125c0 66.1-53.6 119.7-119.7 119.7S5.4 191.1 5.4 125 58.9 5.3 125 5.3 244.7 58.9 244.7 125z" style="fill:#4e5151"/>
  <radialGradient id="SVGID_00000060001132721565099100000016204454013177524125_" cx="-.866" cy="8.621" r="179.7" gradientUnits="userSpaceOnUse">
    <stop offset="0" style="stop-color:#fff"/>
    <stop offset=".272" style="stop-color:#c6c6c6"/>
    <stop offset=".63" style="stop-color:#767675"/>
    <stop offset=".881" style="stop-color:#3a3a39"/>
    <stop offset="1" style="stop-color:#000"/>
  </radialGradient>
  <path style="fill:url(#SVGID_00000060001132721565099100000016204454013177524125_)" d="M243.8 125c0 65.6-53.2 118.7-118.8 118.7S6.3 190.6 6.3 125 59.4 6.2 125 6.2 243.8 59.4 243.8 125z"/>
  <linearGradient id="SVGID_00000152235179218102642650000018125349549569813182_" gradientUnits="userSpaceOnUse" x1="685.59" y1="685.578" x2="-661.909" y2="-661.92">
    <stop offset="0" style="stop-color:#e8f2f9"/>
    <stop offset=".087" style="stop-color:#e2ebf1"/>
    <stop offset=".241" style="stop-color:#d0d8dd"/>
    <stop offset=".445" style="stop-color:#b1b5b8"/>
    <stop offset=".691" style="stop-color:#7e7f80"/>
    <stop offset=".969" style="stop-color:#212120"/>
    <stop offset="1" style="stop-color:#000"/>
  </linearGradient>
  <path style="fill:url(#SVGID_00000152235179218102642650000018125349549569813182_)" d="M204.6 125c0 44-35.6 79.6-79.6 79.6-44 0-79.6-35.6-79.6-79.6 0-44 35.6-79.6 79.6-79.6 44 0 79.6 35.6 79.6 79.6z"/>
  <path d="m128.2 43.2 8.3-21.9v21.9h6.2V11.8h-9.4l-8.6 22.5h.1l-8.6-22.5h-9.4v31.4h6.2V21.3l8.3 21.9zM214.4 57.3 203.7 73l16.8-8.3 4.6 5.4-26.5 13.4-5.4-6.5 10.3-15.5-.1-.1-17.1 7.3-5.4-6.4 17.9-23.7 4.6 5.5-11.2 15 17.3-7.7z"/>
  <path d="M69.4 51.3c-2.5-2.5-6.4-3.2-10.1-.9.7-1.8.4-3.7 0-4.7-1.6-2.9-2.1-3.2-3.4-4.3-4.2-3.5-8.7-.5-11.8 3.2L28.8 62.9l24.1 20.2L69 63.8c3.7-4.3 4.3-8.7.4-12.5zm-31.2 8.8 9.2-11c1.1-1.3 3.5-1.2 5 .1 1.7 1.4 1.7 3.5.6 4.8l-9.1 10.8-5.7-4.7zm25.4 1.8L54 73.4l-6-5 9.7-11.5c1.1-1.3 3.5-1.7 5.2-.3 1.8 1.5 2 3.8.7 5.3z" style="fill:#333"/>
  <path class="st5" d="m128.3 42 8.2-21.9V42h6.3V10.6h-9.4l-8.6 22.5h.1l-8.6-22.5h-9.5V42h6.3V20.1l8.3 21.9zM214.5 55.2l-10.8 15.7 16.9-8.3 4.5 5.4-26.5 13.4-5.3-6.5 10.3-15.5-.1-.1-17.1 7.3-5.4-6.4 17.9-23.7 4.5 5.5-11.2 15 17.3-7.7zM68.3 50.7c-2.5-2.5-6.4-3.2-10.1-.9.7-1.8.4-3.7 0-4.7-1.6-2.9-2.1-3.2-3.4-4.3-4.2-3.5-8.6-.5-11.8 3.3L27.7 62.3l24.1 20.2L68 63.2c3.6-4.4 4.2-8.7.3-12.5zm-31.2 8.8 9.2-11c1.1-1.3 3.5-1.2 5 .1 1.7 1.4 1.7 3.4.6 4.8l-9.1 10.8-5.7-4.7zm25.4 1.8-9.6 11.4-6-5 9.7-11.5c1.1-1.3 3.5-1.7 5.2-.3 1.8 1.5 2 3.9.7 5.4z"/>
  <radialGradient id="SVGID_00000126310391224206806030000012163820965576723634_" cx="43.429" cy="49.573" r="116.463" gradientUnits="userSpaceOnUse">
    <stop offset="0" style="stop-color:#ededed"/>
    <stop offset=".104" style="stop-color:#e2e1e1"/>
    <stop offset=".305" style="stop-color:#c3c3c2"/>
    <stop offset=".583" style="stop-color:#8d8d8d"/>
    <stop offset=".925" style="stop-color:#373636"/>
    <stop offset="1" style="stop-color:#000"/>
  </radialGradient>
  <path style="fill:url(#SVGID_00000126310391224206806030000012163820965576723634_)" d="M48 125c0-42.5 34.5-77 77-77s77 34.5 77 77-34.5 77-77 77-77-34.5-77-77z"/>
  <radialGradient id="SVGID_00000018919224981203033750000014362292765472510131_" cx="75.676" cy="65.201" r="161.982" gradientUnits="userSpaceOnUse">
    <stop offset="0" style="stop-color:#fff"/>
    <stop offset=".55" style="stop-color:#fdfdfd"/>
    <stop offset=".99" style="stop-color:#b7b6b6"/>
    <stop offset="1" style="stop-color:#646363"/>
    <stop offset="1" style="stop-color:#000"/>
  </radialGradient>
  <path style="fill:url(#SVGID_00000018919224981203033750000014362292765472510131_)" d="M50.3 125c0-41.3 33.5-74.8 74.7-74.8 41.3 0 74.8 33.5 74.8 74.8s-33.5 74.8-74.8 74.8-74.7-33.5-74.7-74.8z"/>
  <radialGradient id="SVGID_00000010989768298229148740000002163427725566741688_" cx="25.43" cy="12.686" r="141.85" gradientUnits="userSpaceOnUse">
    <stop offset="0" style="stop-color:#fff"/>
    <stop offset=".49" style="stop-color:#a0cff1"/>
    <stop offset=".68" style="stop-color:#00a0dd"/>
    <stop offset="1" style="stop-color:#00a0dd"/>
  </radialGradient>
  <path style="fill:url(#SVGID_00000010989768298229148740000002163427725566741688_)" d="M50.1 125H125V50.1c-41.3 0-74.9 33.6-74.9 74.9z"/>
  <radialGradient id="SVGID_00000117655864727864225330000005291837856815513002_" cx="87.567" cy="87.568" r="158.82" gradientUnits="userSpaceOnUse">
    <stop offset="0" style="stop-color:#fff"/>
    <stop offset=".19" style="stop-color:#fff"/>
    <stop offset=".31" style="stop-color:#a0cff1"/>
    <stop offset=".63" style="stop-color:#00a0dd"/>
    <stop offset=".89" style="stop-color:#708fa4"/>
    <stop offset=".99" style="stop-color:#4d4d4c"/>
    <stop offset="1" style="stop-color:#4d4d4c"/>
  </radialGradient>
  <path style="fill:url(#SVGID_00000117655864727864225330000005291837856815513002_)" d="M125 125v74.9c41.3 0 74.9-33.5 74.9-74.9H125z"/>
  <radialGradient id="SVGID_00000114780002801871595660000004048507637826794134_" cx="44.982" cy="51.013" r="114.243" gradientUnits="userSpaceOnUse">
    <stop offset="0" style="stop-color:#ededed"/>
    <stop offset=".104" style="stop-color:#e2e1e1"/>
    <stop offset=".305" style="stop-color:#c3c3c2"/>
    <stop offset=".583" style="stop-color:#8d8d8d"/>
    <stop offset=".925" style="stop-color:#373636"/>
    <stop offset="1" style="stop-color:#000"/>
  </radialGradient>
  <path style="fill:url(#SVGID_00000114780002801871595660000004048507637826794134_)" d="M200.5 123.7h-74.2V49.5h-2.6v74.2H49.5v2.6h74.2v74.2h2.6v-74.2h74.2z"/>
  <linearGradient id="SVGID_00000103243359981363486910000008350289714525412777_" gradientUnits="userSpaceOnUse" x1="95.771" y1="5.561" x2="248.891" y2="158.681">
    <stop offset="0" style="stop-color:#f5f6f9"/>
    <stop offset=".107" style="stop-color:#f1f2f5"/>
    <stop offset=".246" style="stop-color:#e6e7ea"/>
    <stop offset=".405" style="stop-color:#d4d5d7"/>
    <stop offset=".576" style="stop-color:#bababb"/>
    <stop offset=".759" style="stop-color:#949494"/>
    <stop offset=".948" style="stop-color:#616060"/>
    <stop offset="1" style="stop-color:#504f4e"/>
  </linearGradient>
  <path style="fill:url(#SVGID_00000103243359981363486910000008350289714525412777_)" d="M126.3 51.6c39.5.7 71.4 32.6 72.1 72.1h1.3c-.7-40.3-33.1-72.7-73.4-73.4v1.3z"/>
  <path d="M51.5 123.7c.7-39.6 32.6-71.5 72.2-72.2v-1.3c-40.3.7-72.8 33.2-73.5 73.5h1.3z" style="fill:#cbdeee"/>
  <linearGradient id="SVGID_00000017510751481388268080000005262606983014589832_" gradientUnits="userSpaceOnUse" x1="-7.742" y1="82.458" x2="145.358" y2="235.558">
    <stop offset="0" style="stop-color:#f5f6f9"/>
    <stop offset=".107" style="stop-color:#f1f2f5"/>
    <stop offset=".246" style="stop-color:#e6e7ea"/>
    <stop offset=".405" style="stop-color:#d4d5d7"/>
    <stop offset=".576" style="stop-color:#bababb"/>
    <stop offset=".759" style="stop-color:#949494"/>
    <stop offset=".948" style="stop-color:#616060"/>
    <stop offset="1" style="stop-color:#504f4e"/>
  </linearGradient>
  <path style="fill:url(#SVGID_00000017510751481388268080000005262606983014589832_)" d="M123.7 198.4c-39.5-.7-71.4-32.6-72.1-72.1h-1.3c.7 40.2 33.2 72.7 73.4 73.4v-1.3z"/>
  <path d="M198.4 126.3c-.7 39.5-32.6 71.4-72.1 72.1v1.3c40.2-.7 72.7-33.2 73.4-73.4h-1.3z" style="fill:#005c6d"/>
  <linearGradient id="SVGID_00000016758906254203098410000010961990045616730282_" gradientUnits="userSpaceOnUse" x1="-354.466" y1="-354.523" x2="1161.983" y2="1161.926">
    <stop offset="0" style="stop-color:#cbdeee"/>
    <stop offset=".138" style="stop-color:#c3d6e7"/>
    <stop offset=".354" style="stop-color:#abc1d4"/>
    <stop offset=".62" style="stop-color:#86a1b8"/>
    <stop offset=".924" style="stop-color:#517a94"/>
    <stop offset="1" style="stop-color:#44718b"/>
  </linearGradient>
  <path style="fill:url(#SVGID_00000016758906254203098410000010961990045616730282_)" d="M122.3 50.2v72H50.2v1.4h73.5V50.2z"/>
  <linearGradient id="SVGID_00000016753753716217288670000009845079295441852034_" gradientUnits="userSpaceOnUse" x1="39.709" y1="79.674" x2="195.864" y2="235.83">
    <stop offset="0" style="stop-color:#f5f6f9"/>
    <stop offset=".098" style="stop-color:#eeeff2"/>
    <stop offset=".265" style="stop-color:#dcdee0"/>
    <stop offset=".481" style="stop-color:#bebfc0"/>
    <stop offset=".738" style="stop-color:#8f8f8f"/>
    <stop offset="1" style="stop-color:#504f4e"/>
  </linearGradient>
  <path style="fill:url(#SVGID_00000016753753716217288670000009845079295441852034_)" d="M122.1 199v-71.2H50.8v-1.4h72.7V199z"/>
  <linearGradient id="SVGID_00000170253571544307536730000003450571484227358338_" gradientUnits="userSpaceOnUse" x1="-744.124" y1="-744.136" x2="356.613" y2="356.601">
    <stop offset="0" style="stop-color:#e1e7f0"/>
    <stop offset=".65" style="stop-color:#7f96af"/>
    <stop offset=".97" style="stop-color:#105b7a"/>
    <stop offset="1" style="stop-color:#105b7a"/>
  </linearGradient>
  <path style="fill:url(#SVGID_00000170253571544307536730000003450571484227358338_)" d="M127.9 199v-71.2H199v-1.4h-72.5V199z"/>
  <linearGradient id="SVGID_00000039109177596741355680000018385369188702149794_" gradientUnits="userSpaceOnUse" x1="45.214" y1="5.151" x2="201.542" y2="161.48">
    <stop offset="0" style="stop-color:#fff"/>
    <stop offset=".107" style="stop-color:#fbfbfb"/>
    <stop offset=".246" style="stop-color:#efefef"/>
    <stop offset=".405" style="stop-color:#dbdbdb"/>
    <stop offset=".576" style="stop-color:#bebebe"/>
    <stop offset=".759" style="stop-color:#969695"/>
    <stop offset=".948" style="stop-color:#616160"/>
    <stop offset="1" style="stop-color:#504f4e"/>
  </linearGradient>
  <path style="fill:url(#SVGID_00000039109177596741355680000018385369188702149794_)" d="M127.9 50.8V122H199v1.4h-72.5V50.8z"/>
</svg>
