<svg version="1.1" id="Layer_1" xmlns="http://www.w3.org/2000/svg" x="0" y="0" viewBox="0 0 303.3 249.5" style="enable-background:new 0 0 303.3 249.5" xml:space="preserve"><style>.st653{fill:#e4032e}.st654{fill:#231f20}.st659{fill:#404041}</style><path class="st653" d="M151.3 222.6c0-15 12-27.1 27.1-27.1 14.7 0 26.8 12.1 27.1 27.1-.3 14.8-12.4 26.9-27.1 27.1-15.1-.2-27.2-12.3-27.1-27.1zm27.1 17.1c8.2-.1 14.9-7.8 15-17.1-.1-9.5-6.8-17.2-15-17.1-8.5-.1-15.3 7.6-15 17.1-.2 9.4 6.5 17 15 17.1M236.3 206.9v41.4h-11.5v-41.4h-16.4v-9.3H252v9.3h-15.7M265.5 236.9l-4.3 11.4h-13.6l21.4-50.7h14.3l20.7 50.7h-13.6l-4.3-11.4h-20.6zm10.8-8.6h7.1l-7.1-18.6-7.1 18.6h7.1M26.3 206.9v41.4H14.9v-41.4H-.9v-9.3H42v9.3H26.3M44.9 222.6c0-15 12.1-27.1 27.1-27.1 14.8 0 26.9 12.1 27.1 27.1-.2 14.8-12.3 26.9-27.1 27.1-15-.2-27.1-12.3-27.1-27.1zM72 239.7c8.2-.1 15-7.8 15-17.1 0-9.5-6.8-17.2-15-17.1-8.4-.1-15.2 7.6-15 17.1-.2 9.4 6.6 17 15 17.1M124.8 248.3h5.8V229l20-31.4h-12.9L124.8 219l-12.1-21.4H99.1l20 31.4v19.3h5.7"/><path class="st654" d="M9.8 86c0 47.6 62.3 86.3 138.8 86.3 76.5 0 138.8-38.7 138.8-86.3 0-47.6-62.2-86.3-138.8-86.3C72.1-.2 9.8 38.5 9.8 86zm1.4 0c0-46.8 61.6-84.9 137.4-84.9C224.4 1.1 286 39.2 286 86c0 46.8-61.6 84.9-137.4 84.9-75.8 0-137.4-38.1-137.4-84.9z"/><path class="st654" d="M135.4 15.7C103.7 17.6 79.8 26.2 76 36.9c-.4 1-.6 2.1-.6 3.1 0 1.7.5 3.3 1.4 5 4.3 7.4 18.1 13.5 37.8 16.9l.7.1.1-.7c3.4-20.5 10.8-36.7 20.4-44.4l1.7-1.3-2.1.1zM78.1 44.3c-.8-1.4-1.2-2.8-1.2-4.3 0-.9.2-1.8.5-2.7 3.5-9.9 26.6-18.1 56.3-20.2-9.1 8.2-16.1 23.7-19.4 43.2-18.7-3.2-32.2-9.2-36.2-16zM76 36.9zM130.8 63.1l-.1.7.7.1c5.6.4 11.4.6 17.2.6 5.8 0 11.6-.2 17.2-.6l.7-.1-.1-.7c-3.1-17.2-9.9-27.8-17.8-27.8-7.9-.1-14.7 10.6-17.8 27.8zm17.8-26.5c7.1 0 13.3 9.9 16.3 26-5.3.4-10.8.6-16.3.6s-11-.2-16.3-.6c3-16.1 9.2-26 16.3-26zM161.3 16.9c9.6 7.7 17.1 23.9 20.4 44.4l.1.7.7-.1c19.7-3.3 33.5-9.5 37.8-16.9 1.6-2.6 1.8-5.4.9-8.1-3.8-10.7-27.7-19.2-59.4-21.2l-2.1-.1 1.6 1.3zm2.3.3c29.8 2.1 52.9 10.3 56.4 20.2.3.9.5 1.8.5 2.7 0 1.4-.4 2.9-1.2 4.3-4 6.9-17.5 12.8-36.2 16.1-3.5-19.6-10.5-35.1-19.5-43.3zM54.8 46c-14.4 12.1-22 26.3-22 41.3 0 35.5 43.7 65.5 101.5 69.9l2 .2-1.6-1.3c-13.2-11.3-21.3-37.8-21.3-69.2l.1-6.1-.6-.1C81 75 59.1 61.9 55.8 46.5l-.2-1.1-.8.6zM34.1 87.3c0-14.3 7.2-27.9 20.8-39.6C59 63 80.8 76 112.2 81.7c0 .9-.1 5-.1 5 0 30.6 7.8 56.7 20.4 68.8-56.2-4.7-98.4-33.8-98.4-68.2zM129.1 83.4v.8c0 27.5 8.6 49.1 19.5 49.1 11 0 19.5-21.6 19.5-49.1v-1.5l-.7.1c-6.1.5-12.4.8-18.8.8s-12.7-.3-18.8-.8l-.7-.1v.7zm1.3.8c5.9.4 12.1.7 18.2.7s12.2-.3 18.2-.8v.1c0 26.8-8 47.7-18.2 47.7s-18.2-20.9-18.2-47.7zM241.3 46.3c-3.3 15.4-25.2 28.5-57.1 34.2l-.6.1.1 6.1c0 31.4-8.2 57.9-21.3 69.2l-1.6 1.3 2-.2c57.9-4.3 101.5-34.4 101.5-69.9 0-15-7.6-29.3-22-41.3l-.9-.7-.1 1.2zm1 1.4c13.6 11.6 20.8 25.3 20.8 39.6 0 34.4-42.2 63.5-98.3 68.3 12.6-12.2 20.4-38.2 20.4-68.8 0 0-.1-4.1-.1-5 31.3-5.8 53.1-18.8 57.2-34.1z"/><linearGradient id="SVGID_1_" gradientUnits="userSpaceOnUse" x1="148.599" y1="153.477" x2="148.599" y2="55.946"><stop offset="0" style="stop-color:#d0d2d3"/><stop offset=".158" style="stop-color:#f1f1f2"/><stop offset=".164" style="stop-color:#f0f0f1"/><stop offset=".259" style="stop-color:#e8e9ea"/><stop offset=".44" style="stop-color:#e6e7e8"/><stop offset=".559" style="stop-color:#cfd0d1"/><stop offset=".809" style="stop-color:#949597"/><stop offset="1" style="stop-color:#626366"/></linearGradient><path d="M241.4 34.9c.2.6.4 1.1.5 1.7.8 3.2.6 6.4-.4 9.5 14 11.5 22.2 25.8 22.2 41.2 0 38.5-51.6 69.7-115.1 69.7C85 157 33.5 125.8 33.5 87.3c0-15.4 8.3-29.7 22.2-41.2-1-3.1-1.2-6.2-.4-9.5.1-.6.4-1.2.7-1.8-19.1 13.6-30.7 31.4-30.7 51 0 42.6 55.2 77.2 123.3 77.2s123.3-34.6 123.3-77.2c0-19.5-11.5-37.3-30.5-50.9z" style="fill:url(#SVGID_1_)"/><linearGradient id="SVGID_00000134211258104200377130000007993747841372966322_" gradientUnits="userSpaceOnUse" x1="166.192" y1="69.457" x2="133.095" y2="41.685"><stop offset="0" style="stop-color:#e6e7e8"/><stop offset=".44" style="stop-color:#e6e7e8"/><stop offset=".559" style="stop-color:#cfd0d1"/><stop offset=".809" style="stop-color:#949597"/><stop offset="1" style="stop-color:#626366"/></linearGradient><path style="fill:url(#SVGID_00000134211258104200377130000007993747841372966322_)" d="m131.5 63.2-3.6 2.6c2.9-22.1 11.1-36.3 20.7-36.3s17.8 14.2 20.7 36.3l-3.6-2.6c-3-16.8-9.5-27.3-17.1-27.3-7.6 0-14.2 10.5-17.1 27.3z"/><linearGradient id="SVGID_00000098192959224592482170000009590398800794440631_" gradientUnits="userSpaceOnUse" x1="169.383" y1="115.083" x2="121.513" y2="87.445"><stop offset="0" style="stop-color:#e6e7e8"/><stop offset=".44" style="stop-color:#e6e7e8"/><stop offset=".559" style="stop-color:#cfd0d1"/><stop offset=".809" style="stop-color:#949597"/><stop offset="1" style="stop-color:#626366"/></linearGradient><path style="fill:url(#SVGID_00000098192959224592482170000009590398800794440631_)" d="m170.3 78.2-2.9 5.2v.8c0 27.5-8.5 48.4-18.9 48.4-10.4 0-18.9-20.9-18.9-48.4v-.9l-2.9-5.1c-.1 2-.1 3.9-.1 6 0 31.2 9.8 54.8 21.9 54.8 12.1 0 21.9-23.6 21.9-54.8.1-2.1 0-4-.1-6z"/><linearGradient id="SVGID_00000042720293220498994630000002700066385044458117_" gradientUnits="userSpaceOnUse" x1="148.597" y1="79.155" x2="148.597" y2="26.307"><stop offset="0" style="stop-color:#e6e7e8"/><stop offset=".44" style="stop-color:#e6e7e8"/><stop offset=".559" style="stop-color:#cfd0d1"/><stop offset=".809" style="stop-color:#949597"/><stop offset="1" style="stop-color:#626366"/></linearGradient><path style="fill:url(#SVGID_00000042720293220498994630000002700066385044458117_)" d="M165.7 63.2c-5.4.4-11.2.6-17.1.6-6 0-11.7-.2-17.1-.6l-3.6 2.6c6.6.6 13.5.9 20.7.9s14.1-.3 20.7-.9l-3.6-2.6zm63-27.1c-4.3-14.3-40-24.8-80.1-24.8-40.1 0-75.8 10.5-80.1 24.8-3.8 12.4 16.7 23.9 49.1 28.5l-2.8-3.4c-26.2-4.5-41.7-14-38.1-24.1C81 24.9 112.6 16 148.6 16c36 0 67.6 8.9 72 21.1 3.6 10.1-12 19.6-38.1 24.1l-2.8 3.4c32.3-4.6 52.8-16.1 49-28.5z"/><path class="st659" d="M241.5 46.1c5.4 4.4 9.9 9.2 13.4 14.3-1.3-8.3-4.6-16-9.4-22.4-1.3-1.1-2.7-2.1-4.1-3.1.2.6.4 1.1.5 1.7.8 3.2.6 6.4-.4 9.5zM55.7 46.1c-1-3.1-1.2-6.2-.4-9.5.1-.6.4-1.2.7-1.8-1.5 1-2.9 2.1-4.2 3.2-4.8 6.4-8.2 14.1-9.4 22.4 3.4-5.1 8-9.9 13.3-14.3z"/><linearGradient id="SVGID_00000074429422988809815110000013847642490218271419_" gradientUnits="userSpaceOnUse" x1="148.597" y1=".422" x2="148.597" y2="171.619"><stop offset="0" style="stop-color:#c5c7c9"/><stop offset=".048" style="stop-color:#d4d5d7"/><stop offset=".12" style="stop-color:#e6e7e8"/><stop offset=".124" style="stop-color:#e8e9ea"/><stop offset=".147" style="stop-color:#efeff0"/><stop offset=".21" style="stop-color:#f1f1f2"/><stop offset=".545" style="stop-color:#f1f1f2"/><stop offset=".612" style="stop-color:#ccccce"/><stop offset=".692" style="stop-color:#a6a7a9"/><stop offset=".772" style="stop-color:#88898b"/><stop offset=".851" style="stop-color:#737477"/><stop offset=".928" style="stop-color:#66676a"/><stop offset="1" style="stop-color:#626366"/></linearGradient><path style="fill:url(#SVGID_00000074429422988809815110000013847642490218271419_)" d="M10.5 86C10.5 38.7 72.3.4 148.6.4S286.7 38.7 286.7 86s-61.8 85.6-138.1 85.6S10.5 133.3 10.5 86zm138.1 77c68.1 0 123.3-34.6 123.3-77.2S216.7 8.6 148.6 8.6 25.3 43.2 25.3 85.8 80.5 163 148.6 163z"/><path d="M24.5 85.8c0 43 55.7 78 124.1 78 68.4 0 124.1-35 124.1-78s-55.7-78-124.1-78c-68.4 0-124.1 35-124.1 78zm1.6 0c0-42.1 55-76.4 122.5-76.4s122.5 34.3 122.5 76.4-55 76.4-122.5 76.4c-67.6 0-122.5-34.3-122.5-76.4z" style="fill:#fff"/><linearGradient id="SVGID_00000042001903861943176630000001463220764645652908_" gradientUnits="userSpaceOnUse" x1="148.599" y1=".415" x2="148.599" y2="171.608"><stop offset="0" style="stop-color:#c5c7c9"/><stop offset=".048" style="stop-color:#d4d5d7"/><stop offset=".12" style="stop-color:#e6e7e8"/><stop offset=".124" style="stop-color:#e8e9ea"/><stop offset=".147" style="stop-color:#efeff0"/><stop offset=".21" style="stop-color:#f1f1f2"/><stop offset=".545" style="stop-color:#f1f1f2"/><stop offset=".612" style="stop-color:#ccccce"/><stop offset=".692" style="stop-color:#a6a7a9"/><stop offset=".772" style="stop-color:#88898b"/><stop offset=".851" style="stop-color:#737477"/><stop offset=".928" style="stop-color:#66676a"/><stop offset="1" style="stop-color:#626366"/></linearGradient><path style="fill:url(#SVGID_00000042001903861943176630000001463220764645652908_)" d="M116.2 86.8c0-41.2 14.5-75.4 32.4-75.4S181 45.6 181 86.8c0 41.7-14.5 75.4-32.4 75.4s-32.4-33.8-32.4-75.4zm32.4 52.2c12.1 0 21.9-23.6 21.9-54.8 0-32.4-9.8-54.7-21.9-54.7s-21.9 22.3-21.9 54.7c0 31.2 9.8 54.8 21.9 54.8z"/><linearGradient id="SVGID_00000058580926207947715160000001300271243684587905_" gradientUnits="userSpaceOnUse" x1="148.597" y1=".427" x2="148.597" y2="171.622"><stop offset="0" style="stop-color:#c5c7c9"/><stop offset=".048" style="stop-color:#d4d5d7"/><stop offset=".12" style="stop-color:#e6e7e8"/><stop offset=".124" style="stop-color:#e8e9ea"/><stop offset=".147" style="stop-color:#efeff0"/><stop offset=".21" style="stop-color:#f1f1f2"/><stop offset=".545" style="stop-color:#f1f1f2"/><stop offset=".612" style="stop-color:#ccccce"/><stop offset=".692" style="stop-color:#a6a7a9"/><stop offset=".772" style="stop-color:#88898b"/><stop offset=".851" style="stop-color:#737477"/><stop offset=".928" style="stop-color:#66676a"/><stop offset="1" style="stop-color:#626366"/></linearGradient><path style="fill:url(#SVGID_00000058580926207947715160000001300271243684587905_)" d="M55.3 36.6C58.9 22.5 101.9 2 148.6 2c46.7 0 88.3 14.7 93.3 34.6 5.6 22.4-35.8 42.6-93.3 42.6S49.6 59 55.3 36.6zm93.3-25.3c-40.1 0-75.8 10.5-80.1 24.8-4.9 16 30.8 30.5 80.1 30.5s85-14.5 80.1-30.5c-4.3-14.3-40-24.8-80.1-24.8z"/><linearGradient id="SVGID_00000084522142595072344120000007128423567169852337_" gradientUnits="userSpaceOnUse" x1="148.599" y1="35.92" x2="148.599" y2="84.713"><stop offset=".006" style="stop-color:#e6e7e8"/><stop offset="1" style="stop-color:#6d6e70"/></linearGradient><path style="fill:url(#SVGID_00000084522142595072344120000007128423567169852337_)" d="m126.8 78.2 3 5.2c6 .5 12.3.8 18.8.8s12.8-.3 18.9-.8l2.9-5.2c-6.9.7-14.2 1-21.8 1-7.6 0-14.8-.4-21.8-1zm115.6-36.8c-.7 16-25.3 30.2-61.6 35.5l3.6 4.2c35.4-6.3 58.8-22 58-39.7zm-187.6.1c-.8 17.6 22.5 33.3 58.1 39.7l3.6-4.2c-36.4-5.4-60.9-19.6-61.7-35.5z"/><linearGradient id="SVGID_00000131352836522982996190000009736896541448984231_" gradientUnits="userSpaceOnUse" x1="165.498" y1=".42" x2="165.498" y2="84.231"><stop offset="0" style="stop-color:#e6e7e8"/><stop offset=".44" style="stop-color:#e6e7e8"/><stop offset=".559" style="stop-color:#cfd0d1"/><stop offset=".809" style="stop-color:#949597"/><stop offset="1" style="stop-color:#626366"/></linearGradient><path style="fill:url(#SVGID_00000131352836522982996190000009736896541448984231_)" d="m179.6 64.6 2.8-3.4c-4.9-29.8-18.2-49.9-33.8-49.9 14.6 0 26.9 22.7 31 53.3z"/><linearGradient id="SVGID_00000150067676695458163540000001429097786491634111_" gradientUnits="userSpaceOnUse" x1="131.697" y1=".42" x2="131.697" y2="84.231"><stop offset="0" style="stop-color:#e6e7e8"/><stop offset=".44" style="stop-color:#e6e7e8"/><stop offset=".559" style="stop-color:#cfd0d1"/><stop offset=".809" style="stop-color:#949597"/><stop offset="1" style="stop-color:#626366"/></linearGradient><path style="fill:url(#SVGID_00000150067676695458163540000001429097786491634111_)" d="M117.6 64.6c4.1-30.6 16.4-53.3 31-53.3-15.6 0-28.9 20-33.8 49.9l2.8 3.4z"/><linearGradient id="SVGID_00000017486046205199577950000001261611586712692394_" gradientUnits="userSpaceOnUse" x1="130.693" y1=".419" x2="130.693" y2="139.025"><stop offset="0" style="stop-color:#e6e7e8"/><stop offset=".44" style="stop-color:#e6e7e8"/><stop offset=".559" style="stop-color:#cfd0d1"/><stop offset=".809" style="stop-color:#949597"/><stop offset="1" style="stop-color:#626366"/></linearGradient><path style="fill:url(#SVGID_00000017486046205199577950000001261611586712692394_)" d="M116.2 86.8c0-3.3.1-6.6.3-9.8l-3.6 4.2c-.1 1.8-.1 3.7-.1 5.6 0 44.1 15.7 75.4 35.8 75.4-17.9 0-32.4-33.8-32.4-75.4z"/><linearGradient id="SVGID_00000089532959987963671030000008799229265712810675_" gradientUnits="userSpaceOnUse" x1="166.505" y1=".419" x2="166.505" y2="139.025"><stop offset="0" style="stop-color:#e6e7e8"/><stop offset=".44" style="stop-color:#e6e7e8"/><stop offset=".559" style="stop-color:#cfd0d1"/><stop offset=".809" style="stop-color:#949597"/><stop offset="1" style="stop-color:#626366"/></linearGradient><path style="fill:url(#SVGID_00000089532959987963671030000008799229265712810675_)" d="m184.3 81.2-3.6-4.2c.2 3.2.3 6.5.3 9.8 0 41.7-14.5 75.4-32.4 75.4 20.1 0 35.8-31.3 35.8-75.4 0-1.9 0-3.8-.1-5.6z"/></svg>